<?xml version="1.0" encoding="UTF-8"?>
<svg version="1.1" xmlns="http://www.w3.org/2000/svg" width="253" height="156">
<path d="M0 0 C1.47063264 -0.00015541 2.94126569 -0.00165136 4.41189575 -0.00440979 C7.46944646 -0.00578307 10.5265219 0.00659106 13.58398438 0.02954102 C17.49110433 0.05807507 21.39744554 0.05513332 25.30462456 0.0424509 C28.33135579 0.03548334 31.35790844 0.04329269 34.38461685 0.05570793 C35.82543375 0.06020134 37.26626994 0.06057781 38.70708847 0.05664253 C40.71865786 0.0537161 42.73022312 0.07244816 44.74169922 0.09204102 C46.45279373 0.10014549 46.45279373 0.10014549 48.19845581 0.1084137 C54.41116487 0.86478103 58.32853432 3.89394014 62.3828125 8.49609375 C66.11836932 13.29895252 66.81359867 18.73344579 66.1328125 24.6796875 C64.84018736 30.78503304 62.28294173 34.07099682 57.3828125 37.74609375 C53.59148773 39.95769987 50.61265917 40.60785262 46.26708984 40.68554688 C45.0633522 40.71062317 45.0633522 40.71062317 43.83529663 40.73620605 C42.97183624 40.74978149 42.10837585 40.76335693 41.21875 40.77734375 C39.85962997 40.80495789 39.85962997 40.80495789 38.47305298 40.83312988 C35.56803801 40.89177492 32.6629602 40.94447455 29.7578125 40.99609375 C22.29855607 41.1321095 14.84045387 41.28862832 7.3828125 41.49609375 C6.49597778 41.51961914 5.60914307 41.54314453 4.69543457 41.56738281 C2.18661384 41.64125072 -0.32036331 41.73654438 -2.828125 41.83984375 C-3.94871811 41.87072083 -3.94871811 41.87072083 -5.09194946 41.90222168 C-9.06156178 42.09236851 -9.06156178 42.09236851 -12.54150391 43.84960938 C-14.84073713 47.36890781 -14.73884908 50.54363997 -14.73071289 54.61987305 C-14.73063736 55.88095383 -14.73056183 57.14203461 -14.73048401 58.44132996 C-14.72537739 59.81765787 -14.72016139 61.19398538 -14.71484375 62.5703125 C-14.71297836 63.97849986 -14.71155503 65.38668786 -14.71055603 66.7948761 C-14.70674038 70.49876705 -14.69691822 74.2026187 -14.68585205 77.90649414 C-14.67561747 81.68700631 -14.67105402 85.46752484 -14.66601562 89.24804688 C-14.6552951 96.6640804 -14.6382301 104.08008157 -14.6171875 111.49609375 C-13.9571875 111.49609375 -13.2971875 111.49609375 -12.6171875 111.49609375 C-12.6171875 112.15609375 -12.6171875 112.81609375 -12.6171875 113.49609375 C-8.75395412 114.78383821 -5.04228213 114.72992168 -1.01171875 114.8125 C0.24708855 114.84367165 0.24708855 114.84367165 1.53132629 114.87547302 C4.21090544 114.94083393 6.89058219 114.99979089 9.5703125 115.05859375 C11.38737987 115.10179177 13.20443738 115.14540648 15.02148438 115.18945312 C19.47516184 115.29728543 23.92891389 115.3964587 28.3828125 115.49609375 C28.3828125 109.55609375 28.3828125 103.61609375 28.3828125 97.49609375 C27.1040625 97.5425 25.8253125 97.58890625 24.5078125 97.63671875 C22.79950271 97.67426402 21.09116742 97.7106612 19.3828125 97.74609375 C18.54363281 97.77960938 17.70445312 97.813125 16.83984375 97.84765625 C10.22647739 97.95018906 4.82000913 96.67662731 -0.14404297 92.08325195 C-4.54279904 87.10856313 -6.16011328 82.5115681 -5.99609375 75.97265625 C-5.08492094 70.01715564 -2.30594476 65.06703073 2.0703125 60.99609375 C10.85074727 57.02004782 20.27374513 57.15191079 29.74194336 57.18041992 C31.94499659 57.18359329 34.14671984 57.1599961 36.34960938 57.13476562 C43.89500228 57.1016676 50.33126851 57.52345781 57.3828125 60.49609375 C58.8678125 60.99109375 58.8678125 60.99109375 60.3828125 61.49609375 C60.3828125 62.15609375 60.3828125 62.81609375 60.3828125 63.49609375 C60.9809375 63.70234375 61.5790625 63.90859375 62.1953125 64.12109375 C65.29069597 66.06676336 65.9932747 68.13897873 67.3828125 71.49609375 C67.76376343 74.8347168 67.76376343 74.8347168 67.77099609 78.5078125 C67.77625305 79.18180084 67.78151001 79.85578918 67.78692627 80.55020142 C67.80004967 82.76157317 67.7914161 84.97221562 67.78125 87.18359375 C67.78327295 88.73006324 67.78618624 90.2765318 67.78994751 91.82299805 C67.79436047 95.0575472 67.78797319 98.2918471 67.77392578 101.52636719 C67.75683428 105.66230613 67.76668102 109.79766095 67.78464317 113.93357849 C67.79550898 117.12500368 67.79202191 120.31629151 67.7842598 123.50772095 C67.78226551 125.03227814 67.78468986 126.556848 67.79169846 128.08139038 C67.79935941 130.21605232 67.78764544 132.34978209 67.77099609 134.484375 C67.76860931 135.69649658 67.76622253 136.90861816 67.76376343 138.1574707 C67.04702043 144.4389482 64.0814705 148.43816184 59.3828125 152.49609375 C52.70352105 157.62363062 45.85737001 157.08137682 37.71875 157.02734375 C36.28015888 157.03004415 34.84156955 157.03393111 33.40298462 157.03894043 C30.3920143 157.04482122 27.38152016 157.03632685 24.37060547 157.01757812 C20.54795557 156.99491219 16.72643702 157.00784048 12.90382957 157.03186798 C9.93168962 157.0464712 6.95980812 157.04165241 3.98765945 157.03135681 C2.58053066 157.02872289 1.17337694 157.03183919 -0.23372269 157.04127502 C-11.96991327 157.10266382 -22.71061655 155.24128204 -32.9296875 149.24609375 C-33.83332031 148.7253125 -34.73695313 148.20453125 -35.66796875 147.66796875 C-36.31121094 147.28125 -36.95445312 146.89453125 -37.6171875 146.49609375 C-37.6171875 145.83609375 -37.6171875 145.17609375 -37.6171875 144.49609375 C-38.20757812 144.23570312 -38.79796875 143.9753125 -39.40625 143.70703125 C-48.02676546 138.98554752 -52.71154318 128.21522569 -55.67504883 119.32128906 C-57.34159507 112.42639799 -56.94641629 105.22001433 -56.953125 98.16796875 C-56.95956442 96.57147099 -56.9662936 94.97497438 -56.97329712 93.378479 C-56.98523171 90.03988921 -56.98898197 86.70140257 -56.98779297 83.36279297 C-56.98759016 79.11532749 -57.01486937 74.86853393 -57.04933739 70.62122726 C-57.07173687 67.32492117 -57.07562653 64.02877335 -57.07457352 60.73239899 C-57.07691078 59.16812072 -57.08562668 57.60383681 -57.10123825 56.0396347 C-57.24966705 39.6304532 -53.26017099 26.37963375 -41.8046875 14.18359375 C-29.80540497 2.9213113 -16.00390858 -0.13958176 0 0 Z " fill="#203C41" transform="translate(185.6171875,-0.49609375)"/>
<path d="M0 0 C1.40333182 -0.00643835 2.80666234 -0.01316746 4.20999146 -0.02017212 C7.1434439 -0.03210503 10.07677893 -0.03585702 13.01025391 -0.03466797 C16.74802429 -0.03446487 20.48503358 -0.06177415 24.22262383 -0.09621239 C27.11906313 -0.11857313 30.01532179 -0.12250275 32.91183853 -0.12144852 C34.28880564 -0.12379042 35.66577881 -0.13253347 37.04265976 -0.14811325 C45.12261765 -0.2309939 51.57564541 0.16857334 58.6328125 4.3359375 C58.6328125 4.9959375 58.6328125 5.6559375 58.6328125 6.3359375 C59.2928125 6.3359375 59.9528125 6.3359375 60.6328125 6.3359375 C65.28988827 12.68649537 66.43733001 17.60107632 65.6328125 25.3359375 C63.85416134 31.43263936 60.00417765 36.00271881 54.6328125 39.3359375 C50.58017615 40.8904632 47.19057185 41.58813407 42.85864258 41.60717773 C41.19210381 41.62245766 41.19210381 41.62245766 39.49189758 41.63804626 C38.30734482 41.64018631 37.12279205 41.64232635 35.90234375 41.64453125 C33.38346105 41.66967368 30.8645809 41.69507194 28.34570312 41.72070312 C24.38224857 41.74953631 20.41883789 41.77356224 16.45532227 41.79223633 C12.62494114 41.81380459 8.79505515 41.85321747 4.96484375 41.89453125 C3.17890556 41.89470497 3.17890556 41.89470497 1.35688782 41.8948822 C0.25531845 41.90822098 -0.84625092 41.92155975 -1.98120117 41.93530273 C-2.95127609 41.94037338 -3.92135101 41.94544403 -4.92082214 41.95066833 C-7.77032247 42.39942576 -8.66468538 43.04919568 -10.3671875 45.3359375 C-10.8386171 47.28051062 -10.8386171 47.28051062 -10.7421875 49.3359375 C-10.74992187 50.0165625 -10.75765625 50.6971875 -10.765625 51.3984375 C-10.2228304 54.03790928 -9.55764665 54.74368159 -7.3671875 56.3359375 C-4.85269615 56.63169378 -2.57344874 56.75318982 -0.05859375 56.7421875 C1.02434715 56.75844177 1.02434715 56.75844177 2.12916565 56.77502441 C4.44297064 56.80928201 6.75628761 56.82485062 9.0703125 56.8359375 C26.77819039 56.92256543 44.00095521 58.80793433 57.5703125 71.5234375 C68.0113557 82.97553144 72.28650425 95.36312702 71.9140625 110.6953125 C71.00681846 122.4390826 66.01455578 133.95419422 57.6328125 142.3359375 C44.0734933 153.42203688 32.20785529 156.65344495 14.9140625 156.671875 C13.48734406 156.67831435 12.06062691 156.68504353 10.63391113 156.69204712 C7.65516092 156.70396815 4.67652626 156.70773307 1.69775391 156.70654297 C-2.10173515 156.7063395 -5.90047863 156.7336928 -9.69979095 156.76808739 C-12.64251045 156.79041701 -15.58505177 156.79437876 -18.52784729 156.79332352 C-19.92796916 156.79566839 -21.32809678 156.80442857 -22.72813416 156.81998825 C-31.79659066 156.91138529 -38.11515977 156.50308692 -45.390625 150.73046875 C-49.17742065 146.29794783 -51.0901109 142.21187238 -51.3671875 136.3359375 C-50.7602834 129.43368912 -49.17802654 123.99483929 -44.0546875 119.1484375 C-39.28505599 115.93170928 -34.82207117 115.08760972 -29.1340332 115.06469727 C-27.31733879 115.04941734 -27.31733879 115.04941734 -25.46394348 115.03382874 C-24.17002182 115.03168869 -22.87610016 115.02954865 -21.54296875 115.02734375 C-20.19108499 115.01623528 -18.83921125 115.00383995 -17.48735046 114.99021912 C-11.76696725 114.93499967 -6.04651693 114.90404172 -0.32592773 114.87963867 C3.18246219 114.86377548 6.69050121 114.83358283 10.19870949 114.79487419 C12.18120912 114.77756915 14.16383293 114.77716942 16.14640808 114.7769928 C17.94891777 114.75698463 17.94891777 114.75698463 19.7878418 114.73657227 C20.84674118 114.73150162 21.90564056 114.72643097 22.99662781 114.72120667 C25.65444125 114.54985935 25.65444125 114.54985935 27.44343567 112.95933533 C29.09973854 110.69862332 29.49938081 109.13800291 29.6328125 106.3359375 C28.4912206 104.0527537 27.44268567 102.14581067 25.6328125 100.3359375 C23.45643584 100.22557049 21.27673975 100.17993893 19.09765625 100.16015625 C17.72426521 100.14041726 16.35089247 100.11937109 14.97753906 100.09716797 C14.25699341 100.08602966 13.53644775 100.07489136 12.79406738 100.06341553 C-4.20123542 99.75787885 -20.28619574 99.16336677 -34.3671875 88.3359375 C-34.3671875 87.6759375 -34.3671875 87.0159375 -34.3671875 86.3359375 C-34.9446875 86.10003906 -35.5221875 85.86414063 -36.1171875 85.62109375 C-43.72804412 81.27392044 -48.46176751 71.71874226 -50.89550781 63.56616211 C-51.91838247 58.72974391 -51.63854181 53.69720453 -51.6796875 48.7734375 C-51.70869141 47.64357422 -51.73769531 46.51371094 -51.76757812 45.34960938 C-51.86820862 31.90382658 -47.53858469 22.70728071 -38.265625 13.17578125 C-26.81550837 2.35279115 -15.27644508 0.01651901 0 0 Z " fill="#1B373D" transform="translate(51.3671875,-0.3359375)"/>
<path d="M0 0 C1.40333182 -0.00643835 2.80666234 -0.01316746 4.20999146 -0.02017212 C7.1434439 -0.03210503 10.07677893 -0.03585702 13.01025391 -0.03466797 C16.74802429 -0.03446487 20.48503358 -0.06177415 24.22262383 -0.09621239 C27.11906313 -0.11857313 30.01532179 -0.12250275 32.91183853 -0.12144852 C34.28880564 -0.12379042 35.66577881 -0.13253347 37.04265976 -0.14811325 C45.12261765 -0.2309939 51.57564541 0.16857334 58.6328125 4.3359375 C58.6328125 4.9959375 58.6328125 5.6559375 58.6328125 6.3359375 C59.2928125 6.3359375 59.9528125 6.3359375 60.6328125 6.3359375 C65.28988827 12.68649537 66.43733001 17.60107632 65.6328125 25.3359375 C63.84917986 31.44971444 59.98266475 35.94535131 54.6328125 39.3359375 C51.34152544 40.39554829 48.29870207 40.4569503 44.85449219 40.44946289 C43.6935907 40.44938736 42.53268921 40.44931183 41.33660889 40.44923401 C39.4645578 40.44149208 39.4645578 40.44149208 37.5546875 40.43359375 C36.27297668 40.4321788 34.99126587 40.43076385 33.67071533 40.42930603 C30.2709761 40.42549651 26.8712799 40.41567964 23.47155762 40.40460205 C19.9992735 40.39435424 16.5269824 40.3898012 13.0546875 40.38476562 C6.24737821 40.37405591 -0.55990258 40.35699834 -7.3671875 40.3359375 C-7.3671875 39.6759375 -7.3671875 39.0159375 -7.3671875 38.3359375 C-8.0271875 38.3359375 -8.6871875 38.3359375 -9.3671875 38.3359375 C-9.3671875 37.3459375 -9.3671875 36.3559375 -9.3671875 35.3359375 C-11.3471875 35.9959375 -13.3271875 36.6559375 -15.3671875 37.3359375 C-15.3671875 36.3459375 -15.3671875 35.3559375 -15.3671875 34.3359375 C-14.3978125 33.9028125 -13.4284375 33.4696875 -12.4296875 33.0234375 C-9.08986985 31.6344514 -9.08986985 31.6344514 -8.3671875 28.3359375 C-9.9759375 29.0475 -9.9759375 29.0475 -11.6171875 29.7734375 C-17.09441883 32.09242657 -17.09441883 32.09242657 -19.3671875 32.3359375 C-20.3571875 31.6759375 -21.3471875 31.0159375 -22.3671875 30.3359375 C-23.35354587 31.74760636 -24.33100005 33.16549934 -25.3046875 34.5859375 C-25.84996094 35.37484375 -26.39523438 36.16375 -26.95703125 36.9765625 C-30.24306452 42.47452399 -30.26980564 49.36299622 -28.87109375 55.51953125 C-27.18216344 60.41456654 -24.6840951 64.37182842 -21.3671875 68.3359375 C-19.28371633 69.05959444 -19.28371633 69.05959444 -17.3671875 69.3359375 C-17.3671875 70.3259375 -17.3671875 71.3159375 -17.3671875 72.3359375 C-11.35323746 75.01430068 -6.0869447 75.59754097 0.40234375 75.63671875 C1.61215408 75.64516312 1.61215408 75.64516312 2.84640503 75.65377808 C6.22681018 75.66504651 9.60633553 75.65754543 12.98657227 75.62084961 C25.62635829 75.51444793 33.8973344 77.1789521 44.6328125 84.3359375 C46.2828125 82.3559375 47.9328125 80.3759375 49.6328125 78.3359375 C51.1178125 79.3259375 51.1178125 79.3259375 52.6328125 80.3359375 C52.1790625 81.0784375 51.7253125 81.8209375 51.2578125 82.5859375 C50.7215625 83.4934375 50.1853125 84.4009375 49.6328125 85.3359375 C49.1584375 85.9546875 48.6840625 86.5734375 48.1953125 87.2109375 C47.30202962 89.62322041 47.30202962 89.62322041 49.3828125 92.7109375 C49.764375 93.31808594 50.1459375 93.92523438 50.5390625 94.55078125 C54.07088293 100.31521674 54.47099075 106.38365172 53.09765625 112.859375 C51.00654213 120.46965918 47.6297734 126.08859671 41.6328125 131.3359375 C39.3203125 132.1484375 39.3203125 132.1484375 37.6328125 132.3359375 C37.6328125 127.14702911 39.05472091 126.91402909 42.6328125 123.3359375 C47.52589929 117.14684393 48.3352703 111.44959776 48.07421875 103.66015625 C47.47090381 99.11660747 46.02110451 96.21691201 43.6328125 92.3359375 C43.6328125 91.6759375 43.6328125 91.0159375 43.6328125 90.3359375 C41.9828125 90.6659375 40.3328125 90.9959375 38.6328125 91.3359375 C38.6328125 90.6759375 38.6328125 90.0159375 38.6328125 89.3359375 C39.2928125 89.3359375 39.9528125 89.3359375 40.6328125 89.3359375 C36.97061048 84.6749531 32.23273201 82.78758255 26.6328125 81.3359375 C20.62903594 80.63586905 14.54343779 80.76919133 8.5078125 80.7734375 C6.08916174 80.76980735 3.6712206 80.76006785 1.25271606 80.73268127 C-0.24094816 80.71613313 -1.73484569 80.71282382 -3.22854614 80.72569275 C-7.77012885 80.68024567 -11.3338221 79.85189846 -15.51852417 78.07679749 C-17.44460998 77.3049101 -19.34653374 76.79774388 -21.3671875 76.3359375 C-22.0271875 77.3259375 -22.6871875 78.3159375 -23.3671875 79.3359375 C-24.0271875 79.3359375 -24.6871875 79.3359375 -25.3671875 79.3359375 C-24.3694117 82.32926489 -23.614985 83.28360065 -21.3671875 85.3359375 C-22.8521875 85.8309375 -22.8521875 85.8309375 -24.3671875 86.3359375 C-24.1609375 86.9546875 -23.9546875 87.5734375 -23.7421875 88.2109375 C-23.6184375 88.9121875 -23.4946875 89.6134375 -23.3671875 90.3359375 C-24.3571875 91.3259375 -24.3571875 91.3259375 -25.3671875 92.3359375 C-27.614985 90.28360065 -28.3694117 89.32926489 -29.3671875 86.3359375 C-29.9240625 86.5628125 -30.4809375 86.7896875 -31.0546875 87.0234375 C-34.36749236 87.47111383 -35.65332714 86.21695149 -38.3671875 84.3359375 C-48.84306316 73.52842332 -51.55786615 63.35139277 -51.6796875 48.7734375 C-51.70869141 47.64357422 -51.73769531 46.51371094 -51.76757812 45.34960938 C-51.86820862 31.90382658 -47.53858469 22.70728071 -38.265625 13.17578125 C-26.81550837 2.35279115 -15.27644508 0.01651901 0 0 Z " fill="#1A383D" transform="translate(51.3671875,-0.3359375)"/>
<path d="M0 0 C2.20305323 0.00317337 4.40477648 -0.02042383 6.60766602 -0.0456543 C14.15305893 -0.07875233 20.58932515 0.34303789 27.64086914 3.31567383 C28.63086914 3.64567383 29.62086914 3.97567383 30.64086914 4.31567383 C30.64086914 4.97567383 30.64086914 5.63567383 30.64086914 6.31567383 C31.23899414 6.52192383 31.83711914 6.72817383 32.45336914 6.94067383 C35.54875261 8.88634344 36.25133134 10.95855881 37.64086914 14.31567383 C38.02182007 17.65429688 38.02182007 17.65429688 38.02905273 21.32739258 C38.03430969 22.00138092 38.03956665 22.67536926 38.04498291 23.36978149 C38.05810631 25.58115325 38.04947274 27.7917957 38.03930664 30.00317383 C38.04132959 31.54964332 38.04424288 33.09611188 38.04800415 34.64257812 C38.05241711 37.87712728 38.04602984 41.11142718 38.03198242 44.34594727 C38.01489092 48.48188621 38.02473766 52.61724103 38.04269981 56.75315857 C38.05356562 59.94458376 38.05007855 63.13587158 38.04231644 66.32730103 C38.04032215 67.85185822 38.0427465 69.37642807 38.0497551 70.90097046 C38.05741605 73.0356324 38.04570208 75.16936216 38.02905273 77.30395508 C38.02666595 78.51607666 38.02427917 79.72819824 38.02182007 80.97705078 C37.30507707 87.25852828 34.33952714 91.25774192 29.64086914 95.31567383 C22.90761557 100.53403541 15.90867785 99.84802551 7.69555664 99.74145508 C6.2378077 99.73652425 4.78005239 99.73322988 3.32229614 99.73149109 C0.27772561 99.72387774 -2.76637031 99.7033983 -5.81079102 99.67236328 C-9.70562513 99.63271991 -13.60015193 99.61473881 -17.49516487 99.6050539 C-21.22329888 99.59506485 -24.95135902 99.57521045 -28.67944336 99.55395508 C-29.73976461 99.54886146 -29.73976461 99.54886146 -30.8215065 99.54366493 C-32.82904065 99.53203623 -34.8365244 99.5125205 -36.84399414 99.49267578 C-37.98426056 99.48283157 -39.12452698 99.47298737 -40.29934692 99.46284485 C-43.09653696 99.3283042 -45.63715078 98.9516043 -48.35913086 98.31567383 C-48.35913086 97.98567383 -48.35913086 97.65567383 -48.35913086 97.31567383 C-25.25913086 97.31567383 -2.15913086 97.31567383 21.64086914 97.31567383 C20.98086914 96.32567383 20.32086914 95.33567383 19.64086914 94.31567383 C20.30086914 94.31567383 20.96086914 94.31567383 21.64086914 94.31567383 C21.31086914 92.99567383 20.98086914 91.67567383 20.64086914 90.31567383 C19.42399414 90.27442383 18.20711914 90.23317383 16.95336914 90.19067383 C13.6388662 89.77268145 11.89731736 89.11872042 9.64086914 86.62817383 C7.43883979 82.98106272 6.75704464 81.46964898 7.64086914 77.31567383 C9.57836914 74.50317383 9.57836914 74.50317383 12.64086914 72.31567383 C15.01320198 71.90665092 17.24600641 71.75331225 19.65258789 71.74926758 C20.3087207 71.60618164 20.96485352 71.4630957 21.64086914 71.31567383 C22.63086914 69.33567383 22.63086914 69.33567383 23.64086914 67.31567383 C18.36086914 66.98567383 13.08086914 66.65567383 7.64086914 66.31567383 C7.97086914 64.66567383 8.30086914 63.01567383 8.64086914 61.31567383 C8.24689579 58.67762794 8.24689579 58.67762794 7.64086914 56.31567383 C7.64086914 54.64900716 7.64086914 52.98234049 7.64086914 51.31567383 C9.62086914 50.82067383 9.62086914 50.82067383 11.64086914 50.31567383 C10.32086914 49.98567383 9.00086914 49.65567383 7.64086914 49.31567383 C7.82649414 48.59379883 8.01211914 47.87192383 8.20336914 47.12817383 C8.66619409 44.15287056 8.5171658 42.18355381 7.64086914 39.31567383 C6.65086914 38.82067383 6.65086914 38.82067383 5.64086914 38.31567383 C4.65086914 37.65567383 3.66086914 36.99567383 2.64086914 36.31567383 C0.96957982 39.25948871 0.36355155 41.48950777 0.22680664 44.86254883 C0.19119629 45.6240625 0.15558594 46.38557617 0.11889648 47.17016602 C0.08489746 48.12568359 0.05089844 49.08120117 0.01586914 50.06567383 C-0.16975586 54.64442383 -0.16975586 54.64442383 -0.35913086 59.31567383 C-12.56913086 59.31567383 -24.77913086 59.31567383 -37.35913086 59.31567383 C-37.35913086 58.98567383 -37.35913086 58.65567383 -37.35913086 58.31567383 C-25.47913086 58.31567383 -13.59913086 58.31567383 -1.35913086 58.31567383 C-1.35913086 52.37567383 -1.35913086 46.43567383 -1.35913086 40.31567383 C-2.63788086 40.36208008 -3.91663086 40.40848633 -5.23413086 40.45629883 C-6.94244065 40.4938441 -8.65077594 40.53024128 -10.35913086 40.56567383 C-11.61790039 40.61594727 -11.61790039 40.61594727 -12.90209961 40.66723633 C-19.51546597 40.76976914 -24.92193423 39.49620739 -29.88598633 34.90283203 C-34.2847424 29.92814321 -35.90205664 25.33114818 -35.73803711 18.79223633 C-34.8268643 12.83673572 -32.04788812 7.88661081 -27.67163086 3.81567383 C-18.89119609 -0.1603721 -9.46819823 -0.02850913 0 0 Z " fill="#29474C" transform="translate(215.359130859375,56.684326171875)"/>
<path d="M0 0 C-0.125 1.875 -0.125 1.875 -1 4 C-4.0625 5.25 -4.0625 5.25 -7 6 C-6.67 6.66 -6.34 7.32 -6 8 C-4.35 7.67 -2.7 7.34 -1 7 C-1 7.99 -1 8.98 -1 10 C-0.34 10 0.32 10 1 10 C1 10.66 1 11.32 1 12 C19.48 12 37.96 12 57 12 C57 12.33 57 12.66 57 13 C56.30508957 13.00586624 55.61017914 13.01173248 54.89421082 13.01777649 C48.34623991 13.07567341 41.79859611 13.14773227 35.25095654 13.23571491 C31.88469523 13.28044841 28.51855577 13.31969739 25.15209961 13.34643555 C21.28208279 13.3798898 17.41271553 13.43220252 13.54296875 13.48828125 C11.72879707 13.49786613 11.72879707 13.49786613 9.87797546 13.50764465 C8.75703995 13.52743881 7.63610443 13.54723297 6.48120117 13.56762695 C5.49302902 13.57873001 4.50485687 13.58983307 3.48674011 13.60127258 C0.61624486 14.06153184 -0.28834645 14.69226644 -2 17 C-2.4714296 18.94457312 -2.4714296 18.94457312 -2.375 21 C-2.38273437 21.680625 -2.39046875 22.36125 -2.3984375 23.0625 C-1.8556429 25.70197178 -1.19045915 26.40774409 1 28 C3.51449135 28.29575628 5.79373876 28.41725232 8.30859375 28.40625 C9.03055435 28.41708618 9.75251495 28.42792236 10.49635315 28.43908691 C12.81015814 28.47334451 15.12347511 28.48891312 17.4375 28.5 C35.14537789 28.58662793 52.36814271 30.47199683 65.9375 43.1875 C76.3785432 54.63959394 80.65369175 67.02718952 80.28125 82.359375 C79.37400596 94.1031451 74.38174328 105.61825672 66 114 C55.75276834 122.22837408 55.75276834 122.22837408 51 123 C51 122.01 51 121.02 51 120 C51.66 120 52.32 120 53 120 C52.01 116.535 52.01 116.535 51 113 C50.443125 113.26554687 49.88625 113.53109375 49.3125 113.8046875 C40.06824499 118.0832785 32.27861347 119.70716861 22 119 C21 118 21 118 20.90234375 116.15234375 C20.93489583 114.1015625 20.96744792 112.05078125 21 110 C21.81082031 109.97421875 22.62164062 109.9484375 23.45703125 109.921875 C32.29677878 109.46908234 40.04714123 108.00914966 47.6875 103.3671875 C50 102 50 102 52 102 C52.2784375 101.41734375 52.556875 100.8346875 52.84375 100.234375 C53.93918445 98.11752193 55.16434618 96.22090381 56.5 94.25 C60.33387404 88.142944 62.10687204 81.23419941 61 74 C59.88357045 70.56118633 58.47413639 67.29797667 57 64 C56.32693574 62.33590664 55.65847626 60.66991953 55 59 C55.66 58.4225 56.32 57.845 57 57.25 C59.44290923 55.00346023 59.44290923 55.00346023 59 51 C56.69 52.98 54.38 54.96 52 57 C51.40832031 56.59007812 50.81664063 56.18015625 50.20703125 55.7578125 C49.02173828 54.94957031 49.02173828 54.94957031 47.8125 54.125 C47.03519531 53.59132812 46.25789063 53.05765625 45.45703125 52.5078125 C40.15434988 49.25370279 35.66613704 48.71867212 29.515625 48.7265625 C27.84113925 48.70626508 26.16666014 48.68541414 24.4921875 48.6640625 C21.87461736 48.64153945 19.2573108 48.62501641 16.63964844 48.61914062 C-1.3482069 48.55118499 -1.3482069 48.55118499 -9 44 C-9 43.01 -9 42.02 -9 41 C-9.70125 41 -10.4025 41 -11.125 41 C-15.649638 39.42621287 -17.60775524 36.01839301 -20 32 C-22.74970873 25.25071494 -23.14959841 17.6949004 -20.8125 10.75 C-19.17724483 6.88199259 -16.83876837 4.06893878 -14 1 C-13.67 1.66 -13.34 2.32 -13 3 C-7.69164271 3.45500205 -4.96642115 0 0 0 Z " fill="#2B474C" transform="translate(43,28)"/>
<path d="M0 0 C0.99 0.33 1.98 0.66 3 1 C1.2395609 4.95003998 -1.28687046 7.60719691 -4.24609375 10.70703125 C-9.97918339 18.20218408 -9.47401679 26.11225044 -9.46875 35.13671875 C-9.47586405 36.62254621 -9.48356484 38.10837096 -9.49182129 39.5941925 C-9.50523239 42.70341628 -9.50685153 45.81238635 -9.50097656 48.92163086 C-9.49510138 52.8745163 -9.52559527 56.8261646 -9.56609344 60.77881145 C-9.59215967 63.84782786 -9.59483061 66.91655447 -9.59120178 69.98566628 C-9.59287726 71.44110011 -9.60236553 72.89654967 -9.62034607 74.3518734 C-9.73800643 85.05675988 -8.32881399 94.22824801 -1.75 103 C6.43769204 108.95468512 14.80381891 110.10435791 24.6796875 110.31640625 C25.49245148 110.33718735 26.30521545 110.35796844 27.14260864 110.37937927 C29.71999257 110.44437579 32.29747194 110.50352593 34.875 110.5625 C36.63021791 110.60573277 38.38542643 110.64934852 40.140625 110.69335938 C44.42698738 110.80000549 48.71344504 110.90141114 53 111 C53 108.03 53 105.06 53 102 C51.85523193 102.01571045 50.71046387 102.0314209 49.53100586 102.04760742 C45.26138414 102.10213423 40.99179289 102.13643249 36.72192383 102.16479492 C34.87812108 102.17982988 33.03435378 102.20026333 31.19067383 102.22631836 C28.5319745 102.26293561 25.87375029 102.27977943 23.21484375 102.29296875 C22.39789536 102.30845261 21.58094696 102.32393646 20.73924255 102.33988953 C15.4068791 102.34143804 11.76523067 101.41464348 7 99 C9.10714286 93.00274725 9.10714286 93.00274725 12 91 C13.34113196 91.30042297 14.67402033 91.63852138 16 92 C18.83388831 92.15110957 21.64860548 92.25631534 24.484375 92.31640625 C25.29996887 92.33718735 26.11556274 92.35796844 26.95587158 92.37937927 C29.55383105 92.44461297 32.15188913 92.50363768 34.75 92.5625 C36.514333 92.60571014 38.27865613 92.64932522 40.04296875 92.69335938 C44.36187884 92.80026745 48.68088784 92.90160827 53 93 C52.97905273 92.37955811 52.95810547 91.75911621 52.93652344 91.11987305 C52.85338594 88.30924682 52.80134939 85.49887904 52.75 82.6875 C52.71648437 81.71103516 52.68296875 80.73457031 52.6484375 79.72851562 C52.62910156 78.32182617 52.62910156 78.32182617 52.609375 76.88671875 C52.5779541 75.59060669 52.5779541 75.59060669 52.54589844 74.26831055 C53 72 53 72 55.02441406 70.19458008 C55.67635742 69.80036865 56.32830078 69.40615723 57 69 C60.08236365 71.78407039 60.95206337 72.80825346 62 77 C67.94 77.33 73.88 77.66 80 78 C80 78.33 80 78.66 80 79 C74.06 79.33 68.12 79.66 62 80 C61.505 81.485 61.505 81.485 61 83 C65.95 83.33 70.9 83.66 76 84 C76 84.33 76 84.66 76 85 C71.05 85 66.1 85 61 85 C61.33 85.99 61.66 86.98 62 88 C67.94 88.33 73.88 88.66 80 89 C80 89.33 80 89.66 80 90 C73.73 90 67.46 90 61 90 C61.33 91.32 61.66 92.64 62 94 C67.94 94.33 73.88 94.66 80 95 C80 95.33 80 95.66 80 96 C73.73 96 67.46 96 61 96 C61 97.32 61 98.64 61 100 C67.27 100 73.54 100 80 100 C79.34 100.99 78.68 101.98 78 103 C77.34 103 76.68 103 76 103 C76 103.66 76 104.32 76 105 C76.66 105.33 77.32 105.66 78 106 C77.41992188 105.96519531 76.83984375 105.93039063 76.2421875 105.89453125 C71.02652464 105.71379046 67.51608892 106.0645422 63 109 C61.57337781 111.85324437 61.68966132 113.83454549 62 117 C63.60672637 119.94566501 64.85226985 121.57726733 68.046875 122.75390625 C70.01207238 123.25217438 72.0058552 123.63440679 74 124 C74.5625 125.9375 74.5625 125.9375 75 128 C74.67 128.33 74.34 128.66 74 129 C75.485 129.99 75.485 129.99 77 131 C74.31901097 132.34049452 72.25815494 132.12714937 69.25610352 132.12939453 C68.05047256 132.13254669 66.84484161 132.13569885 65.60267639 132.13894653 C64.29133224 132.1369223 62.9799881 132.13489807 61.62890625 132.1328125 C60.26806114 132.13348651 58.90721616 132.13445735 57.54637146 132.13571167 C54.68560649 132.13718856 51.82487268 132.13503738 48.96411133 132.13037109 C45.32645156 132.1247224 41.68886637 132.12792165 38.05120945 132.13394356 C35.23448648 132.13759121 32.41778059 132.13639064 29.60105705 132.13381577 C27.61665168 132.13283728 25.63224559 132.13584019 23.64784241 132.13894653 C-1.21965555 132.07542439 -1.21965555 132.07542439 -9.5625 124.75 C-10.036875 124.1725 -10.51125 123.595 -11 123 C-9.6975667 120.09457188 -8.29113732 118.1907039 -6 116 C-5.38253906 116.33773437 -4.76507813 116.67546875 -4.12890625 117.0234375 C-2.85853516 117.69246094 -2.85853516 117.69246094 -1.5625 118.375 C-0.32693359 119.03628906 -0.32693359 119.03628906 0.93359375 119.7109375 C7.96508186 122.6668497 15.07007261 123.30867481 22.62890625 123.4140625 C23.50401352 123.43342865 24.37912079 123.4527948 25.28074646 123.4727478 C28.04123576 123.53192463 30.80176818 123.57867819 33.5625 123.625 C35.44858463 123.66323692 37.33465286 123.70229185 39.22070312 123.7421875 C43.81366692 123.83757418 48.40671225 123.9218299 53 124 C53 121.03 53 118.06 53 115 C51.8354126 115.01571045 50.6708252 115.0314209 49.47094727 115.04760742 C45.11554995 115.102252 40.76018244 115.13647476 36.40454102 115.16479492 C34.5259083 115.17980333 32.64731016 115.20021652 30.76879883 115.22631836 C28.05541407 115.26305386 25.3424959 115.27980607 22.62890625 115.29296875 C21.80040665 115.30845261 20.97190704 115.32393646 20.11830139 115.33988953 C10.48069039 115.34261878 2.40591314 112.14830525 -5 106 C-14.28793919 96.58822162 -15.60963842 84.98178391 -15.53125 72.3125 C-15.53395354 70.91967499 -15.53784306 69.52685185 -15.54284668 68.1340332 C-15.54870146 65.2327251 -15.54031087 62.33191381 -15.52148438 59.43066406 C-15.49869622 55.74244114 -15.51184127 52.05538312 -15.53577423 48.36720276 C-15.55034255 45.49637333 -15.54557638 42.62581262 -15.53526306 39.75497437 C-15.53135957 37.74394967 -15.54334357 35.73291382 -15.55578613 33.72192383 C-15.43836531 22.12764962 -12.915437 12.69066021 -5 4 C-2.3125 1.4375 -2.3125 1.4375 0 0 Z " fill="#143036" transform="translate(162,23)"/>
<path d="M0 0 C2.14247918 -0.02667324 4.28482832 -0.0676704 6.42675781 -0.12304688 C9.53282971 -0.20226758 12.63647373 -0.23531148 15.7434082 -0.25878906 C16.69465073 -0.29178101 17.64589325 -0.32477295 18.6259613 -0.35876465 C23.81357816 -0.343226 26.6335921 0.20550471 30.43701172 3.87988281 C33.27856445 7.05637476 33.27856445 7.05637476 33.27856445 9.45996094 C32.31589157 9.4687603 32.31589157 9.4687603 31.33377075 9.47773743 C24.61684472 9.54197712 17.90038433 9.62647396 11.18383789 9.72241211 C8.68162194 9.75554013 6.17933344 9.78360927 3.67700195 9.80639648 C0.06731427 9.84016546 -3.54171579 9.89249368 -7.15112305 9.94824219 C-8.81266922 9.95782707 -8.81266922 9.95782707 -10.50778198 9.96760559 C-21.62359884 10.17511196 -30.77176773 12.32789156 -38.72143555 20.45996094 C-46.24321771 30.49437269 -47.05159733 39.47269422 -47.0925293 51.68652344 C-47.10151577 53.08027227 -47.11063791 54.47402023 -47.11988831 55.86776733 C-47.13632515 58.78442716 -47.14406801 61.70097299 -47.14697266 64.61767578 C-47.15233474 68.31933682 -47.18994532 72.01989535 -47.23571682 75.72124672 C-47.26575994 78.60069485 -47.27270212 81.47988693 -47.27369881 84.359478 C-47.27984496 86.37604223 -47.30917389 88.39249422 -47.33921814 90.40884399 C-47.28822019 100.96258877 -45.18307531 112.05786991 -37.5925293 119.96386719 C-29.04565001 126.79780198 -21.08482443 128.56770977 -10.4831543 128.77636719 C-9.60238724 128.79714828 -8.72162018 128.81792938 -7.81416321 128.83934021 C-5.01249676 128.9045003 -2.21073997 128.96356415 0.59106445 129.02246094 C2.49537051 129.06567808 4.39966757 129.10929338 6.30395508 129.15332031 C10.96206664 129.26014717 15.62026868 129.36150834 20.27856445 129.45996094 C20.27856445 132.42996094 20.27856445 135.39996094 20.27856445 138.45996094 C14.7833953 138.53476429 9.28853011 138.58886843 3.79296875 138.62475586 C1.92800729 138.63973482 0.0630804 138.66012518 -1.80175781 138.6862793 C-18.64069651 138.91633177 -32.31172742 137.77447804 -45.03393555 125.64746094 C-49.00003693 121.49103581 -51.6946499 117.79966749 -53.72143555 112.45996094 C-54.11426476 111.44849503 -54.11426476 111.44849503 -54.51502991 110.41659546 C-57.15477056 102.75196935 -57.17730385 95.28157066 -57.1550293 87.24902344 C-57.15960313 85.78990438 -57.16491223 84.33078747 -57.1709137 82.87167358 C-57.17979812 79.82744545 -57.17747609 76.7834803 -57.16748047 73.73925781 C-57.15600523 69.87068077 -57.17620309 66.00301858 -57.20539761 62.13456154 C-57.22389523 59.12474971 -57.22344033 56.1151516 -57.21776009 53.10529709 C-57.21760848 51.68058363 -57.22351769 50.25585416 -57.23605156 48.83119583 C-57.33301512 36.0050508 -55.43755715 25.21523086 -46.72143555 15.45996094 C-46.24319336 14.86699219 -45.76495117 14.27402344 -45.2722168 13.66308594 C-33.36111588 0.10183251 -16.59231617 0.1577434 0 0 Z " fill="#305C66" transform="translate(194.721435546875,8.5400390625)"/>
<path d="M0 0 C1.01111343 0.00141495 2.02222687 0.0028299 3.0639801 0.00428772 C6.27315306 0.00985664 9.48225461 0.02240338 12.69140625 0.03515625 C14.87565003 0.04017527 17.05989491 0.04473747 19.24414062 0.04882812 C24.58075327 0.05981588 29.91732465 0.07652289 35.25390625 0.09765625 C31.62890625 5.84765625 31.62890625 5.84765625 28.25390625 8.09765625 C25.37704092 8.30334499 22.58899122 8.39866946 19.7109375 8.40625 C17.97981456 8.43142512 16.24869485 8.4568229 14.51757812 8.48242188 C11.7968033 8.51106676 9.07608494 8.53508914 6.35522461 8.55395508 C3.72348903 8.57576041 1.09243381 8.61522549 -1.5390625 8.65625 C-2.34143845 8.65636581 -3.14381439 8.65648163 -3.97050476 8.65660095 C-11.45416008 8.78615312 -18.36101513 10.56299212 -23.74609375 16.09765625 C-28.40418548 23.30823778 -28.31561441 29.72991812 -28.2421875 38.16015625 C-28.2423428 39.51961342 -28.24383687 40.87907102 -28.24659729 42.23852539 C-28.24797539 45.07621027 -28.23552369 47.9133861 -28.21264648 50.75097656 C-28.18426289 54.36881635 -28.18700675 57.9858117 -28.1997366 61.60371399 C-28.20672719 64.40750201 -28.19886626 67.21109852 -28.18647957 70.01486206 C-28.17983562 71.99109817 -28.18408532 73.96736136 -28.18858337 75.94360352 C-28.10883492 83.58172631 -27.94567728 90.26735399 -22.84375 96.375 C-22.17214844 96.92285156 -21.50054687 97.47070312 -20.80859375 98.03515625 C-20.13957031 98.60105469 -19.47054687 99.16695313 -18.78125 99.75 C-15.5810431 101.86913893 -12.49332618 102.21703733 -8.71191406 102.30297852 C-7.54115326 102.33289635 -7.54115326 102.33289635 -6.34674072 102.36341858 C-5.51430847 102.38013107 -4.68187622 102.39684357 -3.82421875 102.4140625 C-2.53423981 102.44523415 -2.53423981 102.44523415 -1.21820068 102.47703552 C1.52242223 102.54229364 4.263139 102.60130542 7.00390625 102.66015625 C8.86459295 102.70336406 10.72527023 102.74697907 12.5859375 102.79101562 C17.14183148 102.89795067 21.69781965 102.99928476 26.25390625 103.09765625 C26.25390625 106.06765625 26.25390625 109.03765625 26.25390625 112.09765625 C21.13103625 112.14738542 16.00830923 112.1835307 10.88525391 112.20751953 C9.14532013 112.21752843 7.40540295 112.23113968 5.66552734 112.24853516 C3.1532784 112.27300979 0.64125337 112.28419065 -1.87109375 112.29296875 C-2.6391333 112.30329132 -3.40717285 112.31361389 -4.19848633 112.32424927 C-12.81696895 112.32600824 -21.46784751 110.45913544 -28.37109375 105.03515625 C-33.74042752 98.39413816 -36.84538113 91.19618799 -36.93896484 82.67358398 C-36.94714233 82.02596603 -36.95531982 81.37834808 -36.96374512 80.71110535 C-36.98855199 78.56782945 -37.00510886 76.42461991 -37.01953125 74.28125 C-37.02485493 73.54626848 -37.0301786 72.81128696 -37.0356636 72.05403328 C-37.06238328 68.15867278 -37.08175614 64.2633441 -37.09619141 60.36791992 C-37.10949142 57.15831757 -37.13727119 53.94935693 -37.17822266 50.73999023 C-37.22781784 46.85256471 -37.25234564 42.96571789 -37.25941849 39.07798958 C-37.2660896 37.60412336 -37.28120251 36.13026794 -37.3053093 34.65658379 C-37.47593767 23.58839014 -35.95230635 15.54565153 -28.37109375 7.16015625 C-20.28503031 -0.27832202 -10.3569939 -0.05510498 0 0 Z " fill="#315C66" transform="translate(188.74609375,21.90234375)"/>
<path d="M0 0 C-0.33 1.65 -0.66 3.3 -1 5 C1.97 5.495 1.97 5.495 5 6 C5 6.66 5 7.32 5 8 C3.04072937 9.7143618 1.04119788 11.38405168 -1 13 C-0.01 13.33 0.98 13.66 2 14 C2.99 13.34 3.98 12.68 5 12 C5.33 13.32 5.66 14.64 6 16 C4.375 17.625 4.375 17.625 2 19 C-1.25 18.1875 -1.25 18.1875 -4 17 C-4.33 17.66 -4.66 18.32 -5 19 C-4.01 19.6496875 -4.01 19.6496875 -3 20.3125 C-2.34 20.869375 -1.68 21.42625 -1 22 C-1 22.99 -1 23.98 -1 25 C-3.31 24.34 -5.62 23.68 -8 23 C-7.67 23.99 -7.34 24.98 -7 26 C-6.34 26.33 -5.68 26.66 -5 27 C-5 28.32 -5 29.64 -5 31 C-4.34 31.33 -3.68 31.66 -3 32 C-2.81836108 34.30770757 -2.7314302 36.62307198 -2.6875 38.9375 C-2.33088115 47.36612649 -0.14535711 54.01437733 5.8125 60.125 C6.534375 60.74375 7.25625 61.3625 8 62 C6.70700306 64.88437779 5.34058637 66.87219421 3 69 C0.33333333 67.66666667 -2.33333333 66.33333333 -5 65 C-5 66.98 -5 68.96 -5 71 C-3.68 71 -2.36 71 -1 71 C-1.66 72.98 -2.32 74.96 -3 77 C-9.9064803 74.17882613 -14.46042574 66.70073545 -17.4375 60.125 C-20.26897088 53.24312907 -20.25082275 46.81821122 -20.3125 39.4375 C-20.34150391 38.30763672 -20.37050781 37.17777344 -20.40039062 36.01367188 C-20.47127375 26.5425954 -18.88925099 17.64284096 -12.625 10.1875 C-12.02429688 9.47078125 -11.42359375 8.7540625 -10.8046875 8.015625 C-10.20914062 7.35046875 -9.61359375 6.6853125 -9 6 C-8.44570312 5.37609375 -7.89140625 4.7521875 -7.3203125 4.109375 C-3.46057243 0 -3.46057243 0 0 0 Z " fill="#1D3A3F" transform="translate(20,9)"/>
<path d="M0 0 C2.7161489 0.62075696 5.16938838 1.45271961 7.73095703 2.53930664 C12.00357363 4.16301442 15.77041602 4.41015862 20.3046875 4.37109375 C21.87370009 4.38847667 23.44271046 4.40606105 25.01171875 4.42382812 C27.44258803 4.43386899 29.87331011 4.43750119 32.30419922 4.43579102 C43.27414382 4.45245591 53.20435779 4.47724913 62 12 C62 12.66 62 13.32 62 14 C59.75 16.1875 59.75 16.1875 57 18 C54.6875 17.75 54.6875 17.75 53 17 C50.52045034 21.16434334 50.52045034 21.16434334 50.3125 25.875 C50.539375 26.57625 50.76625 27.2775 51 28 C50.48083008 27.51265381 49.96166016 27.02530762 49.42675781 26.52319336 C46.20159433 24.49886791 43.96544856 24.63116493 40.171875 24.62890625 C38.80826206 24.61501322 37.44465529 24.60050478 36.08105469 24.58544922 C35.37283569 24.58252869 34.6646167 24.57960815 33.93493652 24.57659912 C16.34455518 24.4630906 1.97126094 23.09425927 -13 13 C-12 11 -12 11 -10.0625 10.25 C-9.0415625 10.12625 -9.0415625 10.12625 -8 10 C-6 12 -6 12 -6 15 C-5.01 15 -4.02 15 -3 15 C-3.33 14.34 -3.66 13.68 -4 13 C-3.01 11.68 -2.02 10.36 -1 9 C-1.99 8.34 -2.98 7.68 -4 7 C-4 6.01 -4 5.02 -4 4 C-3.34 4 -2.68 4 -2 4 C-1.34 2.68 -0.68 1.36 0 0 Z " fill="#28464B" transform="translate(30,75)"/>
<path d="M0 0 C0.99 0.99 1.98 1.98 3 3 C2.154375 3.33 1.30875 3.66 0.4375 4 C-5.74449682 7.59679815 -10.39441789 12.98697591 -12.56640625 19.8671875 C-14.40433737 28.90782166 -12.56645951 36.33889482 -7.5625 43.9375 C-4.99877802 47.00146042 -4.62580984 47.3918493 -1 48 C-1 48.99 -1 49.98 -1 51 C5.01395004 53.67836318 10.2802428 54.26160347 16.76953125 54.30078125 C17.57607147 54.30641083 18.38261169 54.31204041 19.21359253 54.31784058 C22.59399768 54.32910901 25.97352303 54.32160793 29.35375977 54.28491211 C41.99354579 54.17851043 50.2645219 55.8430146 61 63 C62.65 61.02 64.3 59.04 66 57 C67.485 57.99 67.485 57.99 69 59 C68.54625 59.7425 68.0925 60.485 67.625 61.25 C67.08875 62.1575 66.5525 63.065 66 64 C65.525625 64.61875 65.05125 65.2375 64.5625 65.875 C63.66921712 68.28728291 63.66921712 68.28728291 65.75 71.375 C66.1315625 71.98214844 66.513125 72.58929688 66.90625 73.21484375 C70.43807043 78.97927924 70.83817825 85.04771422 69.46484375 91.5234375 C67.37372963 99.13372168 63.9969609 104.75265921 58 110 C55.6875 110.8125 55.6875 110.8125 54 111 C54 105.81109161 55.42190841 105.57809159 59 102 C63.89308679 95.81090643 64.7024578 90.11366026 64.44140625 82.32421875 C63.83809131 77.78066997 62.38829201 74.88097451 60 71 C60 70.34 60 69.68 60 69 C58.35 69.33 56.7 69.66 55 70 C55 69.34 55 68.68 55 68 C55.66 68 56.32 68 57 68 C53.33779798 63.3390156 48.59991951 61.45164505 43 60 C36.99622344 59.29993155 30.91062529 59.43325383 24.875 59.4375 C22.45634924 59.43386985 20.0384081 59.42413035 17.61990356 59.39674377 C16.12623934 59.38019563 14.63234181 59.37688632 13.13864136 59.38975525 C8.59705865 59.34430817 5.0333654 58.51596096 0.84866333 56.74085999 C-1.07742248 55.9689726 -2.97934624 55.46180638 -5 55 C-5.66 55.99 -6.32 56.98 -7 58 C-7.66 58 -8.32 58 -9 58 C-8.0022242 60.99332739 -7.2477975 61.94766315 -5 64 C-6.485 64.495 -6.485 64.495 -8 65 C-7.79375 65.61875 -7.5875 66.2375 -7.375 66.875 C-7.25125 67.57625 -7.1275 68.2775 -7 69 C-7.99 69.99 -7.99 69.99 -9 71 C-11.2477975 68.94766315 -12.0022242 67.99332739 -13 65 C-14.98 65.495 -14.98 65.495 -17 66 C-18.24546405 63.50907189 -17.7767578 62.58919267 -17 60 C-18.32 59.67 -19.64 59.34 -21 59 C-21 57.02 -21 55.04 -21 53 C-17 53 -17 53 -15.25 54.5 C-14.8375 54.995 -14.425 55.49 -14 56 C-10.52100842 54.60840337 -9.51947499 53.36748512 -8 50 C-8.47050781 49.50371094 -8.94101562 49.00742188 -9.42578125 48.49609375 C-17.9651257 39.178838 -18.42244126 32.15692083 -18 20 C-19.32 19.34 -20.64 18.68 -22 18 C-20.1875 16.9375 -20.1875 16.9375 -18 16 C-17.01 16.33 -16.02 16.66 -15 17 C-14.773125 16.13375 -14.54625 15.2675 -14.3125 14.375 C-11.47544604 7.07971838 -6.59940865 3.70090907 0 0 Z " fill="#133138" transform="translate(35,21)"/>
<path d="M0 0 C6.16484588 7.58750262 8.56431705 14.61598525 8.4375 24.375 C8.42775146 25.21281006 8.41800293 26.05062012 8.40795898 26.91381836 C8.06489171 38.87930726 3.57647007 45.765449 -5 54 C-10.651946 59.20515185 -16.68592919 61.7853357 -24 64 C-24.64066406 64.19722656 -25.28132813 64.39445312 -25.94140625 64.59765625 C-28.71117957 65.13899715 -31.36761031 65.1318694 -34.1875 65.125 C-35.78658203 65.12886719 -35.78658203 65.12886719 -37.41796875 65.1328125 C-40 65 -40 65 -41 64 C-41.14115161 61.32941149 -41.04247107 58.67567762 -41 56 C-40.18917969 55.97421875 -39.37835938 55.9484375 -38.54296875 55.921875 C-29.70322122 55.46908234 -21.95285877 54.00914966 -14.3125 49.3671875 C-12 48 -12 48 -10 48 C-9.7215625 47.41734375 -9.443125 46.8346875 -9.15625 46.234375 C-8.06081555 44.11752193 -6.83565382 42.22090381 -5.5 40.25 C-1.66612596 34.142944 0.10687204 27.23419941 -1 20 C-2.11642955 16.56118633 -3.52586361 13.29797667 -5 10 C-5.67306426 8.33590664 -6.34152374 6.66991953 -7 5 C-2.25 0 -2.25 0 0 0 Z " fill="#305B64" transform="translate(105,82)"/>
<path d="M0 0 C0.66 0.33 1.32 0.66 2 1 C1.2884375 1.61875 1.2884375 1.61875 0.5625 2.25 C-1.25246835 4.28276455 -1.83990409 5.27836946 -2 8 C-0.64599355 10.72981832 -0.64599355 10.72981832 1 13 C1.8971875 12.0409375 1.8971875 12.0409375 2.8125 11.0625 C5.61993404 8.41549076 7.50376653 8.05617737 11.3125 7.625 C16.20301701 8.12234071 17.57084492 9.57084492 21 13 C22.5547669 16.10953379 22.28644437 18.56266761 22 22 C18.92307692 27.53846154 18.92307692 27.53846154 16 29 C14.50148442 29.06989345 12.99998458 29.08441536 11.5 29.0625 C10.30890625 29.04896484 10.30890625 29.04896484 9.09375 29.03515625 C8.05734375 29.01775391 8.05734375 29.01775391 7 29 C6.34 29 5.68 29 5 29 C5.495 29.7425 5.99 30.485 6.5 31.25 C8 34 8 34 8 38 C28.79 38 49.58 38 71 38 C71 38.33 71 38.66 71 39 C62.66327561 39.09296287 54.32677028 39.16389722 45.98965454 39.20724869 C42.1177531 39.22806256 38.24620808 39.2562651 34.37451172 39.30175781 C30.63325532 39.34543929 26.89234026 39.36918367 23.15084839 39.37950897 C21.72836947 39.38686064 20.30590777 39.40121638 18.88357544 39.42292023 C9.70645366 39.55730004 3.33983392 39.23681803 -4.0234375 33.39453125 C-7.81023315 28.96201033 -9.7229234 24.87593488 -10 19 C-9.37921084 11.93983849 -7.8035107 6.41232316 -2.3125 1.6875 C-1.1678125 0.8521875 -1.1678125 0.8521875 0 0 Z M-2 10 C-2.66 11.32 -3.32 12.64 -4 14 C-3.01 13.34 -2.02 12.68 -1 12 C-1.33 11.34 -1.66 10.68 -2 10 Z " fill="#3B5B5F" transform="translate(10,117)"/>
<path d="M0 0 C1.20771057 0.01089157 1.20771057 0.01089157 2.43981934 0.02200317 C3.30852661 0.04165131 4.17723389 0.06129944 5.07226562 0.08154297 C6.42511658 0.10485184 6.42511658 0.10485184 7.80529785 0.12863159 C9.71861768 0.16546748 11.63183724 0.20786497 13.54492188 0.25537109 C16.43950814 0.32282151 19.3333752 0.35943576 22.22851562 0.39404297 C33.9542525 0.61026862 44.80019145 0.9647492 54.16601562 8.94873047 C54.90207031 9.56232422 55.638125 10.17591797 56.39648438 10.80810547 C56.91855469 11.26701172 57.440625 11.72591797 57.97851562 12.19873047 C56.58518988 15.56593434 54.99958702 17.18468287 51.97851562 19.19873047 C51.09099609 18.58384766 51.09099609 18.58384766 50.18554688 17.95654297 C49.39535156 17.41771484 48.60515625 16.87888672 47.79101562 16.32373047 C47.01371094 15.79005859 46.23640625 15.25638672 45.43554688 14.70654297 C40.12191101 11.44571079 35.62197109 10.91741837 29.45898438 10.92529297 C27.77994131 10.90499936 26.1009049 10.88414848 24.421875 10.86279297 C21.79543416 10.84024631 19.16925763 10.82373771 16.54272461 10.81787109 C13.99350094 10.80828665 11.44544346 10.77443892 8.89648438 10.73779297 C8.12225632 10.74283844 7.34802826 10.74788391 6.55033875 10.75308228 C0.75298941 10.64973964 -2.98859788 9.07333992 -8.02148438 6.19873047 C-7.70898438 4.32373047 -7.70898438 4.32373047 -7.02148438 2.19873047 C-3.96391074 0.16034804 -3.42347933 -0.0491565 0 0 Z " fill="#315C65" transform="translate(43.021484375,65.80126953125)"/>
<path d="M0 0 C1.26521484 0.02255859 2.53042969 0.04511719 3.83398438 0.06835938 C6.95302619 0.12720922 10.06965902 0.2093863 13.1875 0.3125 C12.8575 1.3025 12.5275 2.2925 12.1875 3.3125 C12.09238839 5.66511357 12.05763024 8.02046967 12.0625 10.375 C12.05992187 11.62410156 12.05734375 12.87320313 12.0546875 14.16015625 C11.96801724 17.21450713 11.96801724 17.21450713 13.1875 19.3125 C8.95856532 19.42883933 4.73004326 19.49979952 0.5 19.5625 C-0.69818359 19.59601563 -1.89636719 19.62953125 -3.13085938 19.6640625 C-4.28779297 19.67695312 -5.44472656 19.68984375 -6.63671875 19.703125 C-7.69979248 19.72407227 -8.76286621 19.74501953 -9.8581543 19.76660156 C-13.53340694 19.20169206 -15.16521234 17.86743697 -17.8125 15.3125 C-19.39148053 12.15453893 -19.63178171 8.70579364 -18.8125 5.3125 C-14.52560813 -1.76843669 -7.48972034 -0.25185299 0 0 Z " fill="#3DC7B8" transform="translate(208.8125,67.6875)"/>
<path d="M0 0 C2.7161489 0.62075696 5.16938838 1.45271961 7.73095703 2.53930664 C12.00357363 4.16301442 15.77041602 4.41015862 20.3046875 4.37109375 C21.87370009 4.38847667 23.44271046 4.40606105 25.01171875 4.42382812 C27.44258803 4.43386899 29.87331011 4.43750119 32.30419922 4.43579102 C43.27414382 4.45245591 53.20435779 4.47724913 62 12 C62 12.66 62 13.32 62 14 C59.75 16.1875 59.75 16.1875 57 18 C54.23503763 17.90783459 52.40411035 16.70415155 49.91186523 15.46679688 C45.68547047 13.66550135 41.82935516 13.57591947 37.28515625 13.59375 C36.47058456 13.58291382 35.65601288 13.57207764 34.8167572 13.56091309 C32.23192314 13.52687422 29.6475279 13.51110801 27.0625 13.5 C23.65713641 13.48533682 20.25273613 13.45149436 16.84765625 13.40625 C16.0797023 13.40927124 15.31174835 13.41229248 14.52052307 13.41540527 C7.87016455 13.32424041 0.88536214 11.88536214 -4 7 C-4 6.01 -4 5.02 -4 4 C-3.34 4 -2.68 4 -2 4 C-1.34 2.68 -0.68 1.36 0 0 Z " fill="#315C66" transform="translate(30,75)"/>
<path d="M0 0 C2.26038174 -0.00972312 4.51985962 -0.04080269 6.7800293 -0.07226562 C8.2338 -0.07879569 9.68757713 -0.08404615 11.14135742 -0.08789062 C13.10286743 -0.10190918 13.10286743 -0.10190918 15.10400391 -0.11621094 C19.34955216 0.28963601 22.03291258 1.37825511 25.83276367 3.24023438 C25.83276367 4.23023438 25.83276367 5.22023438 25.83276367 6.24023438 C25.17276367 6.57023437 24.51276367 6.90023437 23.83276367 7.24023438 C23.18063075 9.26486693 23.18063075 9.26486693 22.83276367 11.24023438 C21.62740967 11.21405029 20.42205566 11.18786621 19.18017578 11.16088867 C14.68703948 11.07005039 10.19398355 11.01286328 5.70019531 10.96557617 C3.75930102 10.94050838 1.81850043 10.90644483 -0.12207031 10.86303711 C-2.91991344 10.80204284 -5.71650343 10.7739475 -8.51489258 10.75195312 C-9.80593651 10.71324348 -9.80593651 10.71324348 -11.12306213 10.67375183 C-17.38330907 10.67086978 -20.40278115 12.1785012 -25.16723633 16.24023438 C-26.40644934 13.26612313 -27.46782037 10.38760619 -28.16723633 7.24023438 C-26.84723633 7.24023438 -25.52723633 7.24023438 -24.16723633 7.24023438 C-24.01254883 6.31210937 -24.01254883 6.31210937 -23.85473633 5.36523438 C-23.16723633 3.24023438 -23.16723633 3.24023438 -20.16723633 1.24023438 C-13.54306963 -0.25364298 -6.75416714 0.01757944 0 0 Z " fill="#27464A" transform="translate(215.167236328125,56.759765625)"/>
<path d="M0 0 C4.07596105 3.66836495 5.70569567 6.70782205 6.40625 12.1640625 C6.66605062 21.75503541 4.80183413 28.29864873 -1.41796875 35.68359375 C-8.41833581 42.29178339 -17.17844701 42.30714562 -26.25390625 42.10546875 C-27.16011719 42.07066406 -28.06632812 42.03585938 -29 42 C-29 39.36 -29 36.72 -29 34 C-27.7315625 33.97873047 -27.7315625 33.97873047 -26.4375 33.95703125 C-17.26052938 33.57118135 -12.30696742 31.86522717 -5.5625 25.8125 C-2.90830178 21.0349432 -2.26299119 15.8967245 -3.6171875 10.57421875 C-4.32339105 8.68092066 -5.15104876 6.83373469 -6 5 C-4.02 3.35 -2.04 1.7 0 0 Z " fill="#315C66" transform="translate(94,91)"/>
<path d="M0 0 C4.75 1.875 4.75 1.875 7 3 C7.18163892 5.30770757 7.2685698 7.62307198 7.3125 9.9375 C7.66911885 18.36612649 9.85464289 25.01437733 15.8125 31.125 C16.534375 31.74375 17.25625 32.3625 18 33 C16.70700306 35.88437779 15.34058637 37.87219421 13 40 C10.33333333 38.66666667 7.66666667 37.33333333 5 36 C5 37.98 5 39.96 5 42 C6.32 42 7.64 42 9 42 C8.34 43.98 7.68 45.96 7 48 C0.62224108 45.43177493 -3.85637552 38.45523805 -7.0625 32.5625 C-8 30 -8 30 -7 27 C-5.68 29.31 -4.36 31.62 -3 34 C-1.02130559 31.03195838 -0.65838561 29.90215354 -0.3125 26.5 C-0.22613281 25.7265625 -0.13976562 24.953125 -0.05078125 24.15625 C0.12608475 21.81412742 0.12608475 21.81412742 -1 19 C-1.09644305 16.32228714 -1.1392892 13.67684323 -1.125 11 C-1.12886719 10.27554688 -1.13273438 9.55109375 -1.13671875 8.8046875 C-1.13081927 5.60717121 -1.01805798 3.05417393 0 0 Z " fill="#325C65" transform="translate(10,38)"/>
<path d="M0 0 C24.70685404 -0.18247307 24.70685404 -0.18247307 34.875 0.25 C35.98617187 0.29640625 37.09734375 0.3428125 38.2421875 0.390625 C41.62138657 1.13730355 42.85010154 2.34012563 45 5 C46.55024464 8.10048928 46.28992015 10.57894218 46 14 C44.20437595 16.75329021 42.94745078 18.52627461 40 20 C37.4867203 20.12393466 35.01329886 20.18515112 32.5 20.1875 C31.81035156 20.19974609 31.12070313 20.21199219 30.41015625 20.22460938 C28.60522506 20.22988695 26.80082158 20.12184458 25 20 C23 18 23 18 22.76953125 14.8125 C22.78371094 13.554375 22.79789063 12.29625 22.8125 11 C22.81894531 9.741875 22.82539063 8.48375 22.83203125 7.1875 C23 4 23 4 24 2 C16.08 1.67 8.16 1.34 0 1 C0 0.67 0 0.34 0 0 Z " fill="#336771" transform="translate(197,67)"/>
<path d="M0 0 C-0.2578125 1.85546875 -0.2578125 1.85546875 -1 4 C-2.7421875 5.23828125 -2.7421875 5.23828125 -4.875 6.3125 C-9.20922619 8.87575205 -10.69066474 11.00815934 -12 16 C-12.80443671 21.59449164 -12.62611479 25.60540072 -9.4375 30.375 C-8.96183594 30.98085938 -8.48617187 31.58671875 -7.99609375 32.2109375 C-7 34 -7 34 -7.16015625 36.1015625 C-8 38 -8 38 -11 40 C-13.47339751 39.78035466 -14.6328998 39.35898749 -16.4140625 37.6171875 C-21.35231797 30.51247156 -22.86318792 23.59141726 -22 15 C-20.68870569 9.21186497 -17.98900469 5.31243751 -14 1 C-13.67 1.66 -13.34 2.32 -13 3 C-7.69164271 3.45500205 -4.96642115 0 0 0 Z " fill="#315B64" transform="translate(43,28)"/>
<path d="M0 0 C2.97551795 1.77603298 5.42755188 3.85510377 7 7 C7.54724071 12.69130337 6.59333707 15.56117185 3 20 C-0.45739557 21.72869779 -4.21975568 21.48966895 -8 21 C-10.87029869 19.20606332 -12.49131638 18.01736724 -14 15 C-14.92390453 6.30620985 -14.92390453 6.30620985 -12.1875 2.4375 C-8.16031793 -0.20893393 -4.73196914 -0.4812172 0 0 Z " fill="#3CAEA4" transform="translate(25,125)"/>
<path d="M0 0 C2.88867631 1.58092547 5.0591941 3.32998957 7 6 C7.79465981 9.5173467 7.64011083 12.71977834 6 16 C5.34 16 4.68 16 4 16 C4 16.66 4 17.32 4 18 C0.58251778 20.10306598 -2.02085525 20.40603518 -6 20 C-8.80915461 18.72311154 -10.50106764 17.68900183 -12.3125 15.1875 C-13.58476509 11.13938379 -13.50914951 8.12012891 -11.75 4.25 C-8.51568604 0.09159633 -5.19387852 -0.81472604 0 0 Z " fill="#355F69" transform="translate(100,10)"/>
<path d="M0 0 C2.64129705 3.22825196 2.90084515 6.95916156 2.6875 11.0625 C1.72573067 13.44583189 1.10337716 14.74259449 -0.9375 16.3125 C-4.46114653 17.42523048 -7.70972754 17.87579913 -11.3125 17.0625 C-14.60076203 14.18527073 -16.06181432 12.29085983 -16.9375 8 C-16.09943038 4.06107279 -14.39523388 2.57170199 -11.3125 0.0625 C-7.26789457 -1.28570181 -4.01012634 -1.6257269 0 0 Z " fill="#325E67" transform="translate(239.3125,128.9375)"/>
<path d="M0 0 C-0.99 0.495 -0.99 0.495 -2 1 C-2.33 1.99 -2.66 2.98 -3 4 C-4.32 4 -5.64 4 -7 4 C-6.690625 4.598125 -6.38125 5.19625 -6.0625 5.8125 C-3.68378043 10.70986382 -3.95782744 14.84919966 -4.0625 20.1875 C-4.13655911 23.08211111 -4.13655911 23.08211111 -3 26 C-2.34 26 -1.68 26 -1 26 C-1.33 26.99 -1.66 27.98 -2 29 C-2.99 28.67 -3.98 28.34 -5 28 C-4.67 27.01 -4.34 26.02 -4 25 C-5.65 25.66 -7.3 26.32 -9 27 C-7.02 29.97 -7.02 29.97 -5 33 C-9.21779303 31.49364535 -10.7747674 28.75987578 -13 25 C-15.05528537 18.83414389 -14.59810818 13.58756772 -11.875 7.6875 C-9.22319587 2.85097088 -6.02579691 -2.00859897 0 0 Z " fill="#274449" transform="translate(194,60)"/>
<path d="M0 0 C-1.65 0.66 -3.3 1.32 -5 2 C-5.33 4.97 -5.66 7.94 -6 11 C-5.26394531 10.71125 -4.52789062 10.4225 -3.76953125 10.125 C-2.30580078 9.568125 -2.30580078 9.568125 -0.8125 9 C0.63189453 8.443125 0.63189453 8.443125 2.10546875 7.875 C4.92182358 7.02363228 7.08164439 6.82927353 10 7 C10 7.99 10 8.98 10 10 C9.40574219 10.12375 8.81148437 10.2475 8.19921875 10.375 C1.39722817 12.06756375 -3.15665537 15.01509275 -8.5546875 19.453125 C-11 21 -11 21 -13.3203125 20.734375 C-13.87460937 20.49203125 -14.42890625 20.2496875 -15 20 C-13.38405168 17.95880212 -11.7143618 15.95927063 -10 14 C-9.34 14 -8.68 14 -8 14 C-8 13.34 -8 12.68 -8 12 C-10.97 11.505 -10.97 11.505 -14 11 C-14.5 8.3125 -14.5 8.3125 -14 5 C-10.09284997 1.55733634 -5.14672274 -1.71557425 0 0 Z " fill="#29494F" transform="translate(33,3)"/>
<path d="M0 0 C-0.2421875 1.91015625 -0.2421875 1.91015625 -1 4 C-2.8203125 4.87109375 -2.8203125 4.87109375 -5.125 5.4375 C-13.76653102 8.03954579 -17.54969137 12.14762033 -21.93359375 19.98828125 C-22.28550781 20.65214844 -22.63742188 21.31601562 -23 22 C-26.37462715 21.45276317 -28.08235 20.9451 -31 19 C-31 18.01 -31 17.02 -31 16 C-26.25 16.875 -26.25 16.875 -24 18 C-25.29299694 15.11562221 -26.65941363 13.12780579 -29 11 C-27.25 9.875 -27.25 9.875 -25 9 C-23.66666667 9.66666667 -22.33333333 10.33333333 -21 11 C-18.76622169 10.42481768 -18.76622169 10.42481768 -17 9 C-16.67 8.01 -16.34 7.02 -16 6 C-14.29296875 4.6484375 -14.29296875 4.6484375 -12.1875 3.375 C-11.50042969 2.94960938 -10.81335938 2.52421875 -10.10546875 2.0859375 C-6.54723573 0.25070785 -4.04197084 0 0 0 Z " fill="#2F5159" transform="translate(43,16)"/>
<path d="M0 0 C0.66 0 1.32 0 2 0 C2 2.97 2 5.94 2 9 C5.96 9 9.92 9 14 9 C14.33 10.32 14.66 11.64 15 13 C10.71 13 6.42 13 2 13 C2 13.99 2 14.98 2 16 C1.01 16.33 0.02 16.66 -1 17 C-1 16.01 -1 15.02 -1 14 C-2.32 14 -3.64 14 -5 14 C-4.938125 14.78375 -4.87625 15.5675 -4.8125 16.375 C-4.874375 17.24125 -4.93625 18.1075 -5 19 C-5.99 19.66 -6.98 20.32 -8 21 C-8 16.71 -8 12.42 -8 8 C-7.34 7.67 -6.68 7.34 -6 7 C-6 8.32 -6 9.64 -6 11 C-4.68 10.67 -3.36 10.34 -2 10 C-1.93941406 9.36191406 -1.87882812 8.72382813 -1.81640625 8.06640625 C-1.73261719 7.24011719 -1.64882813 6.41382813 -1.5625 5.5625 C-1.48128906 4.73878906 -1.40007813 3.91507813 -1.31640625 3.06640625 C-1 1 -1 1 0 0 Z " fill="#13313A" transform="translate(62,125)"/>
<path d="M0 0 C-0.33 0.61875 -0.66 1.2375 -1 1.875 C-2.14193235 3.91018344 -2.14193235 3.91018344 -2 6 C-0.35 6.33 1.3 6.66 3 7 C3 7.33 3 7.66 3 8 C2.31292969 8.10957031 1.62585938 8.21914062 0.91796875 8.33203125 C0.01691406 8.49058594 -0.88414063 8.64914063 -1.8125 8.8125 C-2.70582031 8.96332031 -3.59914063 9.11414063 -4.51953125 9.26953125 C-8.50570245 10.44341159 -9.73527185 12.60290778 -12 16 C-12.309375 14.88625 -12.61875 13.7725 -12.9375 12.625 C-13.82326483 9.2054845 -13.82326483 9.2054845 -15 7 C-11.24972384 -0.69793527 -7.94651289 -1.4568607 0 0 Z M-14 10 C-14 10.99 -14 11.98 -14 13 C-14.99 13.495 -14.99 13.495 -16 14 C-15.34 12.68 -14.68 11.36 -14 10 Z " fill="#13353A" transform="translate(22,117)"/>
<path d="M0 0 C0.268125 0.5775 0.53625 1.155 0.8125 1.75 C1.88582215 4.05193192 1.88582215 4.05193192 3.6875 5.6875 C5.77736211 9.36963801 4.71731112 12.95540235 4 17 C5.32 17 6.64 17 8 17 C7.34 18.98 6.68 20.96 6 23 C-0.37775892 20.43177493 -4.85637552 13.45523805 -8.0625 7.5625 C-9 5 -9 5 -8 2 C-6.68 4.31 -5.36 6.62 -4 9 C-2.00902154 6.01353231 -1.05875074 3.40312738 0 0 Z " fill="#3D5A5E" transform="translate(11,63)"/>
<path d="M0 0 C0.66 0.33 1.32 0.66 2 1 C2.66 1 3.32 1 4 1 C5.32 1 6.64 1 8 1 C8.33 3.31 8.66 5.62 9 8 C7.02 8.99 7.02 8.99 5 10 C5 10.99 5 11.98 5 13 C7.31 13 9.62 13 12 13 C12 13.33 12 13.66 12 14 C3.99915383 15.60365544 3.99915383 15.60365544 0 13.1875 C-3.18521079 9.70367569 -3.10082608 7.63799946 -3 3 C-2.34 3 -1.68 3 -1 3 C-0.67 2.01 -0.34 1.02 0 0 Z " fill="#44BDB2" transform="translate(193,72)"/>
<path d="M0 0 C3.625 0.1875 3.625 0.1875 6.625 2.1875 C6.9375 5.6875 6.9375 5.6875 6.625 9.1875 C4.625 11.1875 4.625 11.1875 1.1875 11.5 C-2.375 11.1875 -2.375 11.1875 -4.375 10.125 C-5.97467215 7.02563522 -5.10842508 4.48791286 -4.375 1.1875 C-3.375 0.1875 -3.375 0.1875 0 0 Z " fill="#074042" transform="translate(20.375,129.8125)"/>
<path d="M0 0 C0.99 0.99 1.98 1.98 3 3 C3 3.66 3 4.32 3 5 C4.32 5.33 5.64 5.66 7 6 C5.68 6.33 4.36 6.66 3 7 C3 8.32 3 9.64 3 11 C4.98 11 6.96 11 9 11 C9.33 13.31 9.66 15.62 10 18 C9.34 18.33 8.68 18.66 8 19 C8 17.35 8 15.7 8 14 C6.35 14 4.7 14 3 14 C3 16.31 3 18.62 3 21 C2.01 21 1.02 21 0 21 C0 14.07 0 7.14 0 0 Z " fill="#12313A" transform="translate(54,9)"/>
<path d="M0 0 C2.44679256 1.44255344 3.97390849 2.92566821 6 5 C6 5.99 6 6.98 6 8 C4 9.6875 4 9.6875 2 11 C1.608125 10.195625 1.21625 9.39125 0.8125 8.5625 C-0.76948191 5.76935262 -0.76948191 5.76935262 -3.6875 5.1875 C-4.8321875 5.0946875 -4.8321875 5.0946875 -6 5 C-6 5.99 -6 6.98 -6 8 C-7.32 8.33 -8.64 8.66 -10 9 C-9.6875 5.625 -9.6875 5.625 -9 2 C-5.45870816 -0.36086122 -4.17249782 -0.57269578 0 0 Z " fill="#36626B" transform="translate(100,10)"/>
<path d="M0 0 C1.32 0 2.64 0 4 0 C4 7.26 4 14.52 4 22 C2.68 22 1.36 22 0 22 C0 14.74 0 7.48 0 0 Z " fill="#2D545B" transform="translate(50,125)"/>
<path d="M0 0 C1.32 0 2.64 0 4 0 C4 7.26 4 14.52 4 22 C2.68 22 1.36 22 0 22 C0 14.74 0 7.48 0 0 Z " fill="#30555C" transform="translate(43,125)"/>
<path d="M0 0 C0.99 0 1.98 0 3 0 C3 7.26 3 14.52 3 22 C1.68 22 0.36 22 -1 22 C-1.02887814 18.52085059 -1.04675687 15.04173169 -1.0625 11.5625 C-1.07087891 10.56927734 -1.07925781 9.57605469 -1.08789062 8.55273438 C-1.09111328 7.60849609 -1.09433594 6.66425781 -1.09765625 5.69140625 C-1.10289307 4.81685791 -1.10812988 3.94230957 -1.11352539 3.04125977 C-1 1 -1 1 0 0 Z " fill="#2F555B" transform="translate(51,9)"/>
<path d="M0 0 C1.81274414 0.01450195 1.81274414 0.01450195 3.66210938 0.02929688 C5.55606445 0.06700195 5.55606445 0.06700195 7.48828125 0.10546875 C9.39963867 0.12577148 9.39963867 0.12577148 11.34960938 0.14648438 C14.50042182 0.18188676 17.6503917 0.23127085 20.80078125 0.29296875 C20.47078125 1.28296875 20.14078125 2.27296875 19.80078125 3.29296875 C19.70566964 5.64558232 19.67091149 8.00093842 19.67578125 10.35546875 C19.67320312 11.60457031 19.670625 12.85367188 19.66796875 14.140625 C19.58129849 17.19497588 19.58129849 17.19497588 20.80078125 19.29296875 C12.88078125 19.29296875 4.96078125 19.29296875 -3.19921875 19.29296875 C-3.19921875 18.96296875 -3.19921875 18.63296875 -3.19921875 18.29296875 C6.70078125 17.79796875 6.70078125 17.79796875 16.80078125 17.29296875 C17.13078125 12.01296875 17.46078125 6.73296875 17.80078125 1.29296875 C14.04838129 1.32593712 10.30197155 1.39307543 6.55078125 1.48046875 C4.95556641 1.48916992 4.95556641 1.48916992 3.328125 1.49804688 C-2.88329551 1.48912277 -2.88329551 1.48912277 -7.80859375 4.84375 C-8.2675 5.65199219 -8.72640625 6.46023437 -9.19921875 7.29296875 C-9.85921875 7.29296875 -10.51921875 7.29296875 -11.19921875 7.29296875 C-8.5524428 1.38862239 -6.58253218 -0.09271172 0 0 Z " fill="#4FBCB4" transform="translate(201.19921875,67.70703125)"/>
<path d="M0 0 C0.66 0.33 1.32 0.66 2 1 C2.268125 2.11375 2.53625 3.2275 2.8125 4.375 C4.19688131 8.60100609 5.22312967 9.01217351 9 11 C9 11.99 9 12.98 9 14 C9.99 14.33 10.98 14.66 12 15 C4.76813075 15.49029622 4.76813075 15.49029622 1.0625 13.125 C-1.01223054 10.98739884 -1.94895934 10.01672997 -2.09765625 7.0546875 C-2.06510417 5.03645833 -2.03255208 3.01822917 -2 1 C-1.34 0.67 -0.68 0.34 0 0 Z " fill="#43B2A8" transform="translate(13,131)"/>
<path d="M0 0 C6.27 0 12.54 0 19 0 C19.33 1.32 19.66 2.64 20 4 C13.4 4 6.8 4 0 4 C0 2.68 0 1.36 0 0 Z " fill="#2C525A" transform="translate(223,119)"/>
<path d="M0 0 C2.3125 -0.25 2.3125 -0.25 5 0 C6.875 1.6875 6.875 1.6875 8 4 C7.6875 6.75 7.6875 6.75 7 9 C4.69 9.33 2.38 9.66 0 10 C-2 7 -2 7 -2 3 C-1.34 3 -0.68 3 0 3 C0 2.01 0 1.02 0 0 Z " fill="#25515A" transform="translate(94,15)"/>
<path d="M0 0 C3 1 3 1 4 3 C4.40423599 7.28490153 4.45828448 9.32689468 2 12.9375 C1.34 13.618125 0.68 14.29875 0 15 C-0.99 14.67 -1.98 14.34 -3 14 C-3 13.34 -3 12.68 -3 12 C-3.99 12 -4.98 12 -6 12 C-6 11.34 -6 10.68 -6 10 C-5.0409375 9.5978125 -5.0409375 9.5978125 -4.0625 9.1875 C-1.66868314 8.11332248 -1.66868314 8.11332248 -1 5 C-1.38932856 2.85744207 -1.38932856 2.85744207 -2 1 C-1.34 0.67 -0.68 0.34 0 0 Z " fill="#386770" transform="translate(239,71)"/>
<path d="M0 0 C0.66 0 1.32 0 2 0 C2.59167969 0.80824219 3.18335938 1.61648437 3.79296875 2.44921875 C7.35425192 6.15698143 11.82026251 5.67304889 16.68164062 5.79492188 C17.87982422 5.80072266 19.07800781 5.80652344 20.3125 5.8125 C22.1387793 5.85020508 22.1387793 5.85020508 24.00195312 5.88867188 C27.00162687 5.94748901 29.99984298 5.98381039 33 6 C32.67 6.66 32.34 7.32 32 8 C27.70834738 8.02891949 23.41671964 8.04677118 19.125 8.0625 C17.90167969 8.07087891 16.67835938 8.07925781 15.41796875 8.08789062 C13.66806641 8.09272461 13.66806641 8.09272461 11.8828125 8.09765625 C10.26463623 8.10551147 10.26463623 8.10551147 8.61376953 8.11352539 C6 8 6 8 4 7 C4 6.34 4 5.68 4 5 C3.34 5 2.68 5 2 5 C1.34 3.35 0.68 1.7 0 0 Z " fill="#054042" transform="translate(189,81)"/>
<path d="M0 0 C0.99 0 1.98 0 3 0 C3 7.26 3 14.52 3 22 C2.01 22 1.02 22 0 22 C0 14.74 0 7.48 0 0 Z " fill="#355A62" transform="translate(72,9)"/>
<path d="M0 0 C6.6 0 13.2 0 20 0 C20 0.99 20 1.98 20 3 C13.4 3 6.8 3 0 3 C0 2.01 0 1.02 0 0 Z " fill="#2D545D" transform="translate(223,108)"/>
<path d="M0 0 C6.6 0 13.2 0 20 0 C20 0.99 20 1.98 20 3 C13.4 3 6.8 3 0 3 C0 2.01 0 1.02 0 0 Z " fill="#335963" transform="translate(223,103)"/>
<path d="M0 0 C6.6 0 13.2 0 20 0 C20 0.99 20 1.98 20 3 C13.4 3 6.8 3 0 3 C0 2.01 0 1.02 0 0 Z " fill="#325B63" transform="translate(223,97)"/>
<path d="M0 0 C6.27 0 12.54 0 19 0 C19 0.99 19 1.98 19 3 C12.73 3 6.46 3 0 3 C0 2.01 0 1.02 0 0 Z " fill="#315963" transform="translate(224,114)"/>
<path d="M0 0 C0.33 0 0.66 0 1 0 C1.33 3.3 1.66 6.6 2 10 C1.01 10.495 1.01 10.495 0 11 C-0.66 10.67 -1.32 10.34 -2 10 C-2 10.99 -2 11.98 -2 13 C-7.23471686 13.75612577 -11.77254141 14.2063366 -17 13 C-17 12.01 -17 11.02 -17 10 C-16.34 10.33 -15.68 10.66 -15 11 C-10.77735834 11.49726089 -7.20844874 11.77464663 -3.5625 9.4375 C-1.62076462 6.4083928 -0.80549897 3.49049552 0 0 Z " fill="#0D3E41" transform="translate(32,134)"/>
<path d="M0 0 C1.76462683 3.08809695 2 4.23312136 2 8 C0.02 8 -1.96 8 -4 8 C-4.99 5.69 -5.98 3.38 -7 1 C-4.53721199 -0.231394 -2.7204945 -0.07159196 0 0 Z " fill="#112F35" transform="translate(23,131)"/>
<path d="M0 0 C3.96 0 7.92 0 12 0 C12 1.32 12 2.64 12 4 C8.04 4 4.08 4 0 4 C0 2.68 0 1.36 0 0 Z " fill="#2D555D" transform="translate(57,16)"/>
<path d="M0 0 C0.99 0 1.98 0 3 0 C3 0.99 3 1.98 3 3 C3.66 3 4.32 3 5 3 C5 3.66 5 4.32 5 5 C5.66 5.33 6.32 5.66 7 6 C5.02 7.32 3.04 8.64 1 10 C0.34 9.67 -0.32 9.34 -1 9 C-1.75 6.125 -1.75 6.125 -2 3 C-1.34 2.01 -0.68 1.02 0 0 Z " fill="#2C494D" transform="translate(39,35)"/>
<path d="M0 0 C1.67542976 0.28604898 3.34385343 0.61781233 5 1 C5 2.98 5 4.96 5 7 C3.1875 7.625 3.1875 7.625 1 8 C0.01 7.34 -0.98 6.68 -2 6 C-1.125 1.125 -1.125 1.125 0 0 Z " fill="#18393F" transform="translate(231,133)"/>
<path d="M0 0 C1.66611905 -0.042721 3.33382885 -0.04063832 5 0 C6 1 6 1 6.0625 3.5625 C6.041875 4.366875 6.02125 5.17125 6 6 C3.625 6.625 3.625 6.625 1 7 C0.34 6.34 -0.32 5.68 -1 5 C-0.625 2.375 -0.625 2.375 0 0 Z " fill="#133A40" transform="translate(231,74)"/>
<path d="M0 0 C1.32 0.33 2.64 0.66 4 1 C4 3.97 4 6.94 4 10 C2.68 10.33 1.36 10.66 0 11 C0 7.37 0 3.74 0 0 Z " fill="#2D4E57" transform="translate(57,125)"/>
<path d="M0 0 C2.97 0.495 2.97 0.495 6 1 C6.66 3.31 7.32 5.62 8 8 C7.01 8.66 6.02 9.32 5 10 C2 6.25 2 6.25 2 4 C1.34 3.67 0.68 3.34 0 3 C0 2.01 0 1.02 0 0 Z " fill="#112D31" transform="translate(100,2)"/>
<path d="M0 0 C1.65 0 3.3 0 5 0 C5 2.64 5 5.28 5 8 C3.35 8 1.7 8 0 8 C0 5.36 0 2.72 0 0 Z " fill="#2C5257" transform="translate(64,23)"/>
<path d="M0 0 C0.33 0.99 0.66 1.98 1 3 C3.97 3.495 3.97 3.495 7 4 C7 4.66 7 5.32 7 6 C5.03852126 7.38938077 3.03833424 8.7260411 1 10 C-0.625 7.25 -0.625 7.25 -2 4 C-1.1875 1.625 -1.1875 1.625 0 0 Z " fill="#102E33" transform="translate(18,11)"/>
<path d="M0 0 C-0.18359375 1.890625 -0.18359375 1.890625 -1 4 C-3.28515625 5.046875 -3.28515625 5.046875 -6.0625 5.75 C-7.44115234 6.11351562 -7.44115234 6.11351562 -8.84765625 6.484375 C-9.55792969 6.65453125 -10.26820312 6.8246875 -11 7 C-11 6.01 -11 5.02 -11 4 C-9.73308493 3.32591692 -8.46129251 2.66099503 -7.1875 2 C-6.47980469 1.62875 -5.77210937 1.2575 -5.04296875 0.875 C-3 0 -3 0 0 0 Z " fill="#315258" transform="translate(43,22)"/>
<path d="M0 0 C2.0625 0.4375 2.0625 0.4375 4 1 C4 2.65 4 4.3 4 6 C2.125 6.625 2.125 6.625 0 7 C-0.66 6.34 -1.32 5.68 -2 5 C-1.46428571 1.46428571 -1.46428571 1.46428571 0 0 Z " fill="#0C4C50" transform="translate(198,74)"/>
<path d="M0 0 C1.32 0 2.64 0 4 0 C4 2.64 4 5.28 4 8 C2.68 8 1.36 8 0 8 C0 5.36 0 2.72 0 0 Z " fill="#31565D" transform="translate(57,23)"/>
<path d="M0 0 C2.64 0 5.28 0 8 0 C4.98112756 3.48331435 2.43090471 4.79157144 -2 6 C-2 5.01 -2 4.02 -2 3 C-1.34 3 -0.68 3 0 3 C0 2.01 0 1.02 0 0 Z " fill="#4D6E72" transform="translate(96,145)"/>
<path d="M0 0 C1.32 0 2.64 0 4 0 C4 2.31 4 4.62 4 7 C2.68 7.33 1.36 7.66 0 8 C0 5.36 0 2.72 0 0 Z " fill="#2B5257" transform="translate(57,139)"/>
<path d="M0 0 C1.32 0 2.64 0 4 0 C4.66 1.65 5.32 3.3 6 5 C5.01 5.495 5.01 5.495 4 6 C4.33 6.66 4.66 7.32 5 8 C1.63279613 6.60667426 0.0140476 5.0210714 -2 2 C-1.34 1.34 -0.68 0.68 0 0 Z " fill="#122C33" transform="translate(186,85)"/>
<path d="M0 0 C0.61875 0.33 1.2375 0.66 1.875 1 C3.91018344 2.14193235 3.91018344 2.14193235 6 2 C5.34 3.98 4.68 5.96 4 8 C2.0625 7.25 2.0625 7.25 0 6 C-0.8125 4 -0.8125 4 -1 2 C-0.67 1.34 -0.34 0.68 0 0 Z " fill="#345257" transform="translate(13,78)"/>
<path d="M0 0 C0.99 0.33 1.98 0.66 3 1 C3 1.66 3 2.32 3 3 C2.34 3 1.68 3 1 3 C1 3.66 1 4.32 1 5 C1.66 5.33 2.32 5.66 3 6 C2.34 6.66 1.68 7.32 1 8 C0.54188325 9.97235333 0.54188325 9.97235333 0.375 12.125 C0.25125 13.40375 0.1275 14.6825 0 16 C-0.33 16 -0.66 16 -1 16 C-1.02692484 13.70839681 -1.04636124 11.41670454 -1.0625 9.125 C-1.07410156 7.84882812 -1.08570313 6.57265625 -1.09765625 5.2578125 C-1 2 -1 2 0 0 Z " fill="#2F7B80" transform="translate(221,69)"/>
<path d="M0 0 C-0.0625 1.8125 -0.0625 1.8125 -1 4 C-4.5625 5.75 -4.5625 5.75 -8 7 C-7.1875 4.0625 -7.1875 4.0625 -6 1 C-3 0 -3 0 0 0 Z " fill="#30525A" transform="translate(43,28)"/>
<path d="M0 0 C0.99 0.66 1.98 1.32 3 2 C3 2.99 3 3.98 3 5 C4.94009522 6.70532323 4.94009522 6.70532323 7 8 C2.48521602 7.46884894 -0.34666857 5.63379708 -4 3 C-3 1 -3 1 0 0 Z " fill="#708E91" transform="translate(21,85)"/>
<path d="M0 0 C0.99 0.33 1.98 0.66 3 1 C2.01 1.495 2.01 1.495 1 2 C0.67 2.99 0.34 3.98 0 5 C-1.32 5 -2.64 5 -4 5 C-4 5.66 -4 6.32 -4 7 C-5.98 7.99 -5.98 7.99 -8 9 C-6.99023354 5.36484074 -6.05356282 4.04330611 -3.0625 1.625 C-2.051875 1.08875 -1.04125 0.5525 0 0 Z " fill="#7B999B" transform="translate(191,59)"/>
<path d="M0 0 C1.65 0 3.3 0 5 0 C5 1.65 5 3.3 5 5 C3.35 5 1.7 5 0 5 C0 3.35 0 1.7 0 0 Z " fill="#294A4E" transform="translate(64,9)"/>
<path d="M0 0 C0.66 0.33 1.32 0.66 2 1 C1.09674384 2.32176485 0.17682097 3.63215066 -0.75 4.9375 C-1.26046875 5.66839844 -1.7709375 6.39929688 -2.296875 7.15234375 C-4.19177915 9.20805399 -5.27425729 9.62669176 -8 10 C-6.34908222 5.70761377 -3.26245434 3.1206085 0 0 Z " fill="#67878A" transform="translate(148,10)"/>
<path d="M0 0 C2.475 0.495 2.475 0.495 5 1 C5 2.32 5 3.64 5 5 C3.35 5 1.7 5 0 5 C0 3.35 0 1.7 0 0 Z " fill="#254A50" transform="translate(57,9)"/>
<path d="M0 0 C0.99 0.33 1.98 0.66 3 1 C3.33 2.65 3.66 4.3 4 6 C4.99 6.33 5.98 6.66 7 7 C4.625 7.125 4.625 7.125 2 7 C0 5 0 5 -0.125 2.375 C-0.08375 1.59125 -0.0425 0.8075 0 0 Z " fill="#0A3A3D" transform="translate(15,133)"/>
<path d="M0 0 C0 0.33 0 0.66 0 1 C-0.60328125 1.08636719 -1.2065625 1.17273438 -1.828125 1.26171875 C-7.28282267 2.21039289 -7.28282267 2.21039289 -11.5625 5.625 C-12.036875 6.40875 -12.51125 7.1925 -13 8 C-13 4 -13 4 -11.6875 2.3125 C-8.05862225 -0.50996047 -4.40067654 -0.08303163 0 0 Z " fill="#429D98" transform="translate(25,125)"/>
<path d="M0 0 C1 3 1 3 0 6 C0.66 6.66 1.32 7.32 2 8 C1.01 8 0.02 8 -1 8 C-1.66 7.01 -2.32 6.02 -3 5 C-2.01 3.35 -1.02 1.7 0 0 Z M-2 8 C-2 8.99 -2 9.98 -2 11 C-2.99 11.495 -2.99 11.495 -4 12 C-3.34 10.68 -2.68 9.36 -2 8 Z " fill="#112A30" transform="translate(10,119)"/>
<path d="M0 0 C2.76276177 0.52268466 5.3260876 1.10869587 8 2 C7.67 2.99 7.34 3.98 7 5 C4.0625 4.1875 4.0625 4.1875 1 3 C0.67 2.01 0.34 1.02 0 0 Z " fill="#3FBAB1" transform="translate(14,140)"/>
<path d="M0 0 C0.66 0.33 1.32 0.66 2 1 C1.07038578 2.15224028 0.1309875 3.29659176 -0.8125 4.4375 C-1.59560547 5.39462891 -1.59560547 5.39462891 -2.39453125 6.37109375 C-4 8 -4 8 -7 9 C-5.64978174 4.58110387 -3.73884332 2.65654657 0 0 Z " fill="#92AAAD" transform="translate(10,117)"/>
<path d="M0 0 C0.99 0 1.98 0 3 0 C3 2.64 3 5.28 3 8 C2.34 8 1.68 8 1 8 C0.67 5.36 0.34 2.72 0 0 Z " fill="#30545A" transform="translate(72,9)"/>
<path d="M0 0 C1.32 0.33 2.64 0.66 4 1 C4 1.99 4 2.98 4 4 C2.35 4.66 0.7 5.32 -1 6 C-1.33 5.34 -1.66 4.68 -2 4 C-1.0625 1.875 -1.0625 1.875 0 0 Z " fill="#37C2B2" transform="translate(196,69)"/>
<path d="M0 0 C-1.1446875 0.4021875 -1.1446875 0.4021875 -2.3125 0.8125 C-4.87380884 1.94424112 -6.19692938 2.91223401 -8 5 C-8.99 4.34 -9.98 3.68 -11 3 C-9.73581754 2.30034557 -8.46334598 1.61565237 -7.1875 0.9375 C-6.47980469 0.55464844 -5.77210937 0.17179688 -5.04296875 -0.22265625 C-3 -1 -3 -1 0 0 Z " fill="#95B0B1" transform="translate(33,3)"/>
<path d="M0 0 C6.625 -0.25 6.625 -0.25 10 2 C9 4 9 4 7 5 C6.67 3.68 6.34 2.36 6 1 C3.69 1.33 1.38 1.66 -1 2 C-0.67 1.34 -0.34 0.68 0 0 Z " fill="#0B454B" transform="translate(17,130)"/>
<path d="M0 0 C2 0.25 2 0.25 4 1 C4.33 1.99 4.66 2.98 5 4 C3.68 4.33 2.36 4.66 1 5 C0.67 4.34 0.34 3.68 0 3 C-0.99 3.66 -1.98 4.32 -3 5 C-1.125 1.125 -1.125 1.125 0 0 Z " fill="#143137" transform="translate(107,128)"/>
<path d="M0 0 C2.91517292 1.07401108 4.77810176 1.77810176 7 4 C5.1875 4.625 5.1875 4.625 3 5 C2.01 4.34 1.02 3.68 0 3 C0 2.01 0 1.02 0 0 Z " fill="#6A858A" transform="translate(95,63)"/>
<path d="M0 0 C2.38564077 0.57584432 4.66682784 1.22227595 7 2 C7 2.66 7 3.32 7 4 C5.35 4.66 3.7 5.32 2 6 C2 4.68 2 3.36 2 2 C1.34 1.34 0.68 0.68 0 0 Z " fill="#678286" transform="translate(239,59)"/>
<path d="M0 0 C0 2.83967231 -0.40267181 5.23735711 -1 8 C-1.99 7.67 -2.98 7.34 -4 7 C-4 6.01 -4 5.02 -4 4 C-3.34 4 -2.68 4 -2 4 C-1.34 2.68 -0.68 1.36 0 0 Z " fill="#30555D" transform="translate(30,75)"/>
<path d="M0 0 C0.66 0.33 1.32 0.66 2 1 C2 1.99 2 2.98 2 4 C0.02 4.33 -1.96 4.66 -4 5 C-4 4.01 -4 3.02 -4 2 C-2.125 0.9375 -2.125 0.9375 0 0 Z " fill="#0E2D34" transform="translate(40,32)"/>
</svg>
